<?xml version="1.0" encoding="UTF-8" standalone="no"?>
<svg
   sodipodi:docname="login.svg"
   inkscape:version="1.4.2 (unknown)"
   id="svg1699"
   version="1.1"
   viewBox="0 0 32 32"
   height="32"
   width="32"
   xmlns:inkscape="http://www.inkscape.org/namespaces/inkscape"
   xmlns:sodipodi="http://sodipodi.sourceforge.net/DTD/sodipodi-0.dtd"
   xmlns="http://www.w3.org/2000/svg"
   xmlns:svg="http://www.w3.org/2000/svg"
   xmlns:rdf="http://www.w3.org/1999/02/22-rdf-syntax-ns#"
   xmlns:cc="http://creativecommons.org/ns#"
   xmlns:dc="http://purl.org/dc/elements/1.1/">
  <defs
     id="defs1693" />
  <sodipodi:namedview
     inkscape:document-rotation="0"
     inkscape:window-maximized="1"
     inkscape:window-y="0"
     inkscape:window-x="0"
     inkscape:window-height="996"
     inkscape:window-width="1920"
     showgrid="false"
     inkscape:current-layer="layer1"
     inkscape:document-units="px"
     inkscape:cy="35.267857"
     inkscape:cx="-6.4285714"
     inkscape:zoom="5.6"
     inkscape:pageshadow="2"
     inkscape:pageopacity="0"
     borderopacity="1"
     bordercolor="#ff1919"
     pagecolor="#000000"
     id="base"
     inkscape:pagecheckerboard="true"
     inkscape:showpageshadow="false"
     inkscape:deskcolor="#000000">
    <inkscape:grid
       type="xygrid"
       id="grid844"
       originx="22"
       originy="-53.000003"
       spacingy="1"
       spacingx="1"
       units="mm"
       visible="false" />
  </sodipodi:namedview>
  <metadata
     id="metadata1696">
    <rdf:RDF>
      <cc:Work
         rdf:about="">
        <dc:format>image/svg+xml</dc:format>
        <dc:type
           rdf:resource="http://purl.org/dc/dcmitype/StillImage" />
      </cc:Work>
    </rdf:RDF>
  </metadata>
  <g
     transform="translate(-76.729144,-134.91899)"
     id="layer1"
     inkscape:groupmode="layer"
     inkscape:label="Layer 1">
    <path
       style="color:#000000;overflow:visible;opacity:0;fill:none;fill-opacity:1;stroke-width:1.06667"
       id="path951-3"
       overflow="visible"
       d="m 92.729144,134.91899 c -8.82763,0 -16,7.17237 -16,16 0,8.82763 7.17237,16 16,16 8.827626,0 15.999996,-7.17237 15.999996,-16 0,-8.82763 -7.17237,-16 -15.999996,-16 z"
       inkscape:connector-curvature="0" />
    <circle
       cx="92.729141"
       cy="150.91899"
       r="14"
       style="fill:#008080;stroke-width:0.0273435"
       id="circle1" />
    <path
       d="m 101.58357,151.20333 c -0.0181,0.0185 -0.0375,0.0353 -0.058,0.05 l -7.444211,5.5645 c -0.328792,0.24715 -0.798585,0.0134 -0.799894,-0.39797 l -0.02208,-2.49895 -7.992561,0.0725 c -0.82756,0.007 -1.504429,-0.65804 -1.511992,-1.48593 l -0.02563,-2.99852 c -0.0076,-0.82792 0.657486,-1.50492 1.485044,-1.51235 l 7.993735,-0.0708 -0.02281,-2.49888 c -0.0058,-0.41154 0.460073,-0.65346 0.793025,-0.41167 l 7.543134,5.43169 c 0.24862,0.17869 0.27911,0.53728 0.0647,0.75579 z m -7.312057,4.22186 6.109097,-4.56598 -6.189619,-4.4541 6.189619,4.4541 v 0 0 0 0 0 0 0 z"
       id="path8-6"
       style="fill:#f9f9f9;fill-opacity:1;stroke-width:0.499715"
       sodipodi:nodetypes="ccccccccccccccccccccccccccc"
       inkscape:transform-center-x="57.673452"
       inkscape:transform-center-y="15.651928" />
  </g>
</svg>
